<svg enable-background="new 0 0 407.453 407.453" version="1.1" viewBox="0 0 407.45 407.45" xml:space="preserve"
    xmlns="http://www.w3.org/2000/svg">
    <g fill="#010002">
        <path
            d="m255.1 116.52c4.487 0 8.129-3.633 8.129-8.129 0-4.495-3.642-8.129-8.129-8.129h-111.61c-4.487 0-8.129 3.633-8.129 8.129 0 4.495 3.642 8.129 8.129 8.129h111.61z">
        </path>
        <path
            d="m367.06 100.26h-55.372c-4.487 0-8.129 3.633-8.129 8.129 0 4.495 3.642 8.129 8.129 8.129h47.243v274.68h-310.41v-274.68h44.536c4.487 0 8.129-3.633 8.129-8.129 0-4.495-3.642-8.129-8.129-8.129h-52.664c-4.487 0-8.129 3.633-8.129 8.129v290.94c0 4.495 3.642 8.129 8.129 8.129h326.67c4.487 0 8.129-3.633 8.129-8.129v-290.94c0-4.495-3.634-8.128-8.129-8.128z">
        </path>
        <path
            d="m282.59 134.8c4.487 0 8.129-3.633 8.129-8.129v-59.273c-1e-3 -37.156-40.115-67.394-89.618-67.394-49.308 0-89.414 30.238-89.414 67.394v59.274c0 4.495 3.642 8.129 8.129 8.129s8.129-3.633 8.129-8.129v-59.274c0-28.198 32.823-51.137 73.36-51.137 40.334 0 73.157 22.939 73.157 51.137v59.274c-1e-3 4.495 3.633 8.128 8.128 8.128z">
        </path>
        <path
            d="m98.892 147.57c0 11.526 9.389 20.907 20.923 20.907s20.923-9.38 20.923-20.907c0-4.495-3.642-8.129-8.129-8.129s-8.129 3.633-8.129 8.129c0 2.561-2.089 4.65-4.666 4.65-2.569 0-4.666-2.089-4.666-4.65 0-4.495-3.642-8.129-8.129-8.129s-8.127 3.634-8.127 8.129z">
        </path>
        <path
            d="m282.59 168.47c11.534 0 20.923-9.38 20.923-20.907 0-4.495-3.642-8.129-8.129-8.129s-8.129 3.633-8.129 8.129c0 2.561-2.089 4.65-4.666 4.65s-4.666-2.089-4.666-4.65c0-4.495-3.642-8.129-8.129-8.129s-8.129 3.633-8.129 8.129c2e-3 11.526 9.39 20.907 20.925 20.907z">
        </path>
    </g>
</svg>