<svg width="100%" height="100%" viewBox="0 -45 419.24 419" xmlns="http://www.w3.org/2000/svg">
    <path
        d="m359.08 102.91c1.4609 1.5391 3.4766 2.4375 5.6016 2.4844 2.125 0.050781 4.1797-0.75 5.7109-2.2227l46.414-44.898c1.5625-1.5117 2.4414-3.5938 2.4336-5.7656-0.003906-2.1758-0.89453-4.2539-2.4688-5.7539l-46.41-44.41c-3.1953-3.0547-8.2578-2.9414-11.312 0.25-1.4648 1.4922-2.2656 3.5156-2.2188 5.6055 0.046875 2.0898 0.9375 4.0742 2.4688 5.5l32.008 30.426h-64.273c-27.59 0.14453-53.539 13.133-70.191 35.137l-54.852 71.617-79.242-103.46c-1.4961-2.0156-3.8359-3.2305-6.3477-3.2891h-108.4c-4.418 0-8 3.582-8 8 0 4.418 3.582 8 8 8h104.45l79.449 104-79.449 104h-104.45c-4.418 0-8 3.582-8 8 0 4.418 3.582 8 8 8h108.4c2.5195-0.078125 4.8594-1.3086 6.3477-3.3359l79.242-103.41 54.812 71.617c16.66 22.012 42.625 35.004 70.23 35.133h64.273l-32.008 30.426c-2.3555 2.2344-3.1016 5.6875-1.8789 8.6992 1.2227 3.0078 4.1602 4.9648 7.4102 4.9258 2.0625-0.007813 4.043-0.8125 5.5312-2.2461l46.41-44.426c1.5742-1.5039 2.4648-3.5859 2.4688-5.7617 0.007813-2.1758-0.87109-4.2617-2.4336-5.7773l-46.414-44.91c-3.1758-3.0742-8.2422-2.9883-11.312 0.18359-3.0703 3.2539-2.9883 8.3633 0.1875 11.516l32.207 31.371h-64.441c-22.617-0.14062-43.875-10.816-57.5-28.875l-57.461-75.023 57.5-75.227c13.613-18.043 34.855-28.719 57.461-28.875h64.441l-32.207 31.371c-3.1758 3.1094-3.2578 8.1992-0.1875 11.414z">
    </path>
</svg>