<svg enable-background="new 0 0 412.735 412.735" version="1.1" viewBox="0 0 412.74 412.74" xml:space="preserve"
    width="100%" height="100%" xmlns="http://www.w3.org/2000/svg">
    <path fill="currentColor"
        d="m295.71 35.522c-34.43-0.184-67.161 14.937-89.339 41.273-22.039-26.516-54.861-41.68-89.339-41.273-64.633 0-117.03 52.395-117.03 117.03 0 110.76 193.31 218.91 201.14 223.09 3.162 2.113 7.286 2.113 10.449 0 7.837-4.18 201.14-110.76 201.14-223.09 0-64.633-52.396-117.03-117.03-117.03zm-89.339 319.22c-30.302-17.763-185.47-112.33-185.47-202.19 0-53.091 43.039-96.131 96.131-96.131 32.512-0.427 62.938 15.972 80.457 43.363 3.557 4.905 10.418 5.998 15.323 2.44 0.937-0.68 1.761-1.503 2.44-2.44 29.055-44.435 88.631-56.903 133.07-27.848 27.202 17.787 43.575 48.114 43.521 80.615 1e-3 90.907-155.17 184.95-185.47 202.19z">
    </path>
</svg>